<svg version="1.0"
    xmlns="http://www.w3.org/2000/svg" width="512.000000pt" height="512.000000pt" viewBox="0 0 512.000000 512.000000" preserveAspectRatio="xMidYMid meet">

    <g transform="translate(0.000000,512.000000) scale(0.100000,-0.100000)" fill="#000000" stroke="none">
        <path d="M2076 5013 c-13 -60 -43 -184 -66 -278 l-41 -170 -109 -42 -108 -43
-235 145 c-129 80 -239 145 -244 145 -4 0 -152 -144 -327 -319 -214 -214 -317
-324 -313 -334 3 -8 67 -115 143 -238 76 -123 138 -231 137 -239 -1 -22 -73
-193 -87 -206 -6 -6 -112 -35 -236 -63 -124 -29 -244 -57 -267 -63 l-43 -10 0
-459 c0 -427 1 -458 18 -463 9 -2 125 -30 257 -61 252 -58 285 -68 285 -84 0
-6 18 -53 40 -104 l40 -94 -148 -242 -149 -242 126 -122 c352 -341 319 -313
329 -286 128 335 344 592 637 756 64 36 132 67 201 93 l26 10 -89 93 c-170
176 -257 360 -284 602 -32 281 69 575 268 785 199 210 451 320 733 320 710 0
1199 -722 934 -1378 -49 -123 -116 -225 -217 -329 -76 -79 -87 -94 -71 -99
360 -126 673 -428 819 -788 21 -53 42 -95 45 -94 9 4 405 429 408 439 2 4 -62
115 -143 245 l-146 237 41 94 c22 51 40 98 40 103 0 15 12 19 272 81 139 33
261 62 271 65 16 5 17 36 17 464 l0 458 -177 42 c-98 23 -220 52 -271 64 -50
12 -96 26 -101 32 -12 12 -83 185 -84 204 -1 8 61 116 137 239 76 123 140 230
143 238 4 10 -99 120 -313 334 -175 175 -322 319 -326 319 -5 0 -114 -65 -244
-145 l-236 -146 -109 43 -108 43 -41 170 c-23 94 -53 218 -66 278 l-26 107
-458 0 -458 0 -26 -107z"/>
        <path d="M2445 3486 c-141 -28 -245 -80 -347 -175 -146 -135 -217 -288 -226
-487 -9 -211 52 -368 203 -520 78 -79 103 -98 185 -137 122 -58 181 -72 310
-72 128 0 188 14 305 70 174 84 297 222 361 407 38 108 44 272 15 388 -34 138
-82 221 -186 326 -73 74 -106 98 -175 132 -47 23 -112 49 -145 57 -87 22 -218
27 -300 11z"/>
        <path d="M2196 1755 c-104 -22 -191 -53 -296 -106 -287 -147 -483 -398 -567
-724 -25 -98 -26 -110 -30 -512 l-5 -413 1271 0 1271 0 0 353 c0 370 -7 474
-40 598 -85 324 -334 613 -635 735 -181 74 -204 78 -570 80 -252 2 -346 0
-399 -11z"/>
    </g>
</svg>
