<svg version="1.0"
    xmlns="http://www.w3.org/2000/svg" width="512.000000pt" height="512.000000pt" viewBox="0 0 512.000000 512.000000" preserveAspectRatio="xMidYMid meet">

    <g transform="translate(0.000000,512.000000) scale(0.100000,-0.100000)" fill="#000000" stroke="none">
        <path d="M266 4678 c7 -507 4 -491 87 -496 l45 -3 4 -177 c3 -162 5 -180 24
-206 l21 -30 -38 -75 c-29 -56 -61 -158 -124 -395 -47 -175 -85 -326 -85 -335
0 -10 9 -44 20 -76 11 -32 20 -60 20 -62 0 -2 -20 -13 -45 -24 -105 -46 -159
-124 -159 -229 -1 -64 5 -77 443 -1055 244 -545 447 -994 451 -999 4 -4 174
66 377 157 202 91 389 175 414 185 53 23 89 63 89 101 0 19 -16 40 -62 81
-162 143 -193 193 -192 310 0 168 119 296 285 308 227 16 395 -201 320 -413
-11 -32 -21 -68 -21 -78 0 -24 53 -77 78 -77 34 0 743 323 776 354 33 31 112
69 126 61 4 -3 11 -25 15 -50 3 -25 25 -84 48 -130 l42 -83 -27 -31 -28 -31 0
-180 0 -180 -38 0 c-21 0 -48 -7 -60 -16 -22 -15 -22 -18 -22 -262 0 -136 3
-311 7 -389 l6 -143 56 0 56 0 -3 345 -4 345 349 0 c191 0 547 3 791 7 l442 6
0 -134 c0 -74 3 -232 7 -352 l6 -217 58 0 58 0 -6 383 c-6 439 -4 430 -85 435
l-46 3 -4 179 c-3 162 -5 181 -24 207 l-21 28 39 75 c47 92 212 696 204 745
-3 17 -16 64 -30 107 l-24 76 63 31 c105 52 162 161 138 264 -13 58 -824 1997
-835 1997 -5 0 -176 -70 -381 -156 -205 -86 -378 -158 -384 -161 -10 -4 -13
17 -13 84 0 147 -31 233 -114 322 -85 90 -184 132 -312 132 -130 0 -223 -40
-313 -136 -123 -130 -152 -317 -75 -481 29 -62 91 -134 140 -165 30 -18 33
-24 21 -31 -25 -14 -806 -338 -814 -338 -5 0 -26 36 -48 79 l-41 79 28 31 28
31 0 179 0 178 45 5 c78 9 75 -4 75 313 0 155 -3 357 -7 448 l-6 167 -56 0
-56 0 3 -405 4 -405 -414 0 c-228 0 -584 -3 -791 -7 l-377 -6 0 140 c0 77 -3
262 -7 411 l-6 272 -58 0 -58 0 5 -442z m2910 -63 c59 -26 115 -78 146 -138
21 -38 23 -56 24 -187 1 -158 6 -180 53 -200 38 -15 25 -20 451 159 184 77
338 137 341 133 14 -16 771 -1840 776 -1869 10 -61 -33 -122 -99 -138 -24 -6
-27 -3 -41 42 -9 26 -48 149 -88 273 -74 232 -90 264 -151 296 -34 17 -111 17
-161 0 -93 -34 -149 -108 -174 -233 -16 -78 -16 -78 21 -313 21 -129 40 -245
43 -257 4 -17 -4 -27 -34 -47 -21 -14 -303 -136 -628 -271 -324 -136 -593
-249 -598 -252 -4 -2 -11 6 -16 19 -5 13 -66 153 -135 310 -69 158 -126 291
-126 296 0 5 13 7 29 4 55 -8 194 17 251 45 175 85 278 316 226 508 -40 150
-139 255 -288 306 -51 17 -79 20 -148 16 -143 -7 -256 -67 -331 -174 l-36 -52
-123 277 c-67 152 -135 302 -150 332 l-28 55 400 165 c253 104 405 172 414
184 35 50 4 113 -67 136 -59 20 -141 98 -170 162 -35 79 -34 194 3 264 38 72
69 106 127 137 94 51 191 55 287 12z m-1326 -584 l0 -159 -242 -7 c-134 -3
-432 -5 -663 -3 l-420 3 -3 157 -3 158 293 3 c161 1 461 3 666 5 l372 2 0
-159z m-41 -326 c32 -45 70 -121 71 -141 0 -6 -214 -107 -476 -224 -392 -176
-477 -218 -489 -239 -30 -58 -120 -130 -223 -177 -1 -1 18 -127 44 -280 49
-300 51 -348 15 -428 -32 -74 -125 -113 -163 -68 -8 9 -72 197 -142 417 l-127
400 86 320 c75 279 92 329 128 387 l41 68 471 3 c258 1 529 3 601 5 l131 2 32
-45z m273 -222 c8 -10 83 -175 167 -368 84 -192 159 -360 167 -373 21 -32 56
-44 95 -30 25 8 37 23 56 67 38 85 84 135 160 173 56 27 77 32 137 32 167 0
295 -120 304 -286 6 -98 -17 -159 -87 -228 -73 -73 -110 -84 -273 -85 -120 0
-128 -1 -152 -24 -18 -17 -26 -35 -26 -57 0 -20 56 -158 150 -367 83 -184 150
-345 150 -359 0 -13 -6 -32 -12 -41 -11 -15 -600 -287 -621 -287 -4 0 -5 26
-1 58 17 155 -70 327 -207 409 -264 158 -596 1 -651 -307 -24 -136 17 -245
137 -367 l80 -83 -110 -49 c-60 -28 -210 -95 -333 -150 l-223 -100 -18 42
c-10 23 -199 447 -421 941 -364 813 -402 903 -397 939 3 24 16 50 32 67 28 29
81 57 91 47 3 -3 48 -139 101 -304 100 -315 113 -340 180 -369 69 -29 192 -2
246 54 37 38 74 126 86 202 11 70 9 89 -44 414 -23 139 -24 161 -12 168 40 22
120 92 149 131 31 41 53 52 548 274 283 128 520 232 526 232 6 1 18 -7 26 -16z
m2472 -611 c3 -5 64 -192 136 -415 l131 -407 -87 -322 c-76 -284 -91 -330
-129 -392 l-43 -71 -593 -3 -593 -2 -23 22 c-51 48 -113 190 -113 257 0 25 18
34 333 164 182 76 374 156 424 177 l93 39 -25 -49 c-14 -27 -25 -51 -25 -53 0
-5 95 -47 104 -47 3 0 24 37 48 82 50 97 122 172 203 211 51 26 56 31 51 55
-33 161 -87 537 -83 583 6 64 35 128 73 158 27 21 107 30 118 13z m61 -1887
l0 -150 -650 -8 c-357 -4 -656 -5 -662 -2 -10 3 -13 45 -13 160 l0 155 663 -2
662 -3 0 -150z"/>
        <path d="M4246 5049 c-3 -34 -6 -102 -6 -150 l0 -89 59 0 60 0 3 145 c3 161 6
155 -73 155 l-36 0 -7 -61z"/>
        <path d="M3808 4924 l-48 -24 65 -130 c36 -72 70 -130 75 -130 9 0 89 37 98
45 5 4 -132 265 -138 264 -3 0 -26 -11 -52 -25z"/>
        <path d="M4686 4823 c-36 -70 -66 -131 -66 -135 0 -4 22 -19 49 -33 l50 -25
65 127 c36 70 66 131 66 135 0 4 -22 19 -49 33 l-50 25 -65 -127z"/>
        <path d="M1308 454 c-27 -13 -48 -29 -48 -35 0 -11 24 -60 87 -176 l44 -83 50
25 c27 14 49 28 49 30 0 7 -129 265 -133 265 -1 -1 -23 -12 -49 -26z"/>
        <path d="M465 340 l-65 -129 43 -26 c24 -14 48 -25 53 -25 5 0 40 59 77 130
l68 129 -50 26 c-28 14 -53 25 -56 25 -2 0 -34 -58 -70 -130z"/>
        <path d="M886 208 c-3 -50 -6 -115 -6 -144 l0 -53 55 -6 c31 -4 57 -6 59 -4 2
2 6 70 9 152 l5 147 -58 0 -57 0 -7 -92z"/>
    </g>
</svg>
