<svg version="1.0"
    xmlns="http://www.w3.org/2000/svg" width="512.000000pt" height="512.000000pt" viewBox="0 0 512.000000 512.000000" preserveAspectRatio="xMidYMid meet">

    <g transform="translate(0.000000,512.000000) scale(0.100000,-0.100000)" fill="#000000" stroke="none">
        <path d="M3947 5105 c-407 -77 -728 -390 -805 -785 l-17 -90 -1260 0 c-1389 0
-1316 3 -1458 -64 -180 -84 -304 -223 -374 -421 l-28 -80 -3 -682 -3 -682 30
-33 29 -33 721 -3 721 -2 0 -301 0 -301 29 -29 c53 -52 135 -33 162 38 5 13 9
152 9 309 l0 284 150 0 150 0 0 -1015 0 -1015 -150 0 -150 0 0 285 c0 324 -4
345 -65 371 -43 17 -76 11 -110 -23 l-25 -26 0 -303 0 -303 -411 -3 -411 -3
-24 -28 c-33 -38 -33 -96 0 -134 l24 -28 1161 -3 1160 -2 32 28 c26 24 32 36
32 72 0 36 -6 48 -32 72 l-31 28 -400 0 -400 0 0 1015 0 1015 216 -2 216 -3
158 -341 c87 -188 172 -364 190 -390 46 -67 154 -172 230 -224 85 -58 229
-124 325 -150 110 -30 303 -38 405 -16 162 35 306 134 365 253 36 74 46 188
22 261 -9 27 -88 205 -177 396 l-160 348 0 381 0 382 133 0 c196 0 345 41 510
139 446 266 613 836 381 1299 -132 265 -373 457 -659 528 -107 27 -304 34
-408 14z m363 -208 c209 -57 367 -171 481 -345 88 -134 124 -258 124 -432 0
-226 -75 -408 -231 -564 -250 -250 -647 -307 -950 -136 -30 16 -65 30 -79 30
-14 0 -78 -14 -141 -31 -64 -17 -118 -28 -121 -26 -2 3 9 57 26 121 17 63 31
127 31 141 0 14 -14 49 -30 79 -141 249 -129 576 30 820 118 180 303 306 520
352 80 17 262 12 340 -9z m-1554 -919 c-54 -62 -120 -189 -141 -273 -9 -33
-18 -108 -22 -167 l-6 -108 -303 0 -304 0 -19 38 c-29 57 -109 126 -168 146
-45 15 -88 17 -320 14 -256 -3 -270 -4 -310 -26 -66 -35 -110 -79 -140 -140
-28 -57 -28 -57 -31 -299 -3 -205 -1 -246 12 -272 33 -64 -1 -61 831 -61 l755
0 0 -200 0 -200 -1195 0 -1195 0 0 578 c0 626 2 647 56 754 35 68 131 167 196
203 124 68 47 64 1256 64 l1094 1 -46 -52z m387 -65 c10 -49 37 -132 59 -186
l40 -99 -37 -144 c-35 -132 -37 -148 -26 -186 16 -54 65 -103 119 -119 38 -11
54 -9 186 26 l144 37 81 -33 81 -33 0 -373 0 -373 -500 0 -500 0 0 568 c0 621
2 648 59 759 40 80 115 160 192 206 35 20 68 37 74 37 6 0 19 -39 28 -87z
m-1382 -512 c17 -18 29 -40 29 -56 0 -38 26 -83 60 -100 24 -13 86 -15 385
-15 l355 0 0 -100 0 -100 -700 0 -700 0 0 154 c0 163 5 191 41 225 22 20 33
21 262 21 l239 0 29 -29z m2222 -1501 c178 -387 185 -416 115 -495 -115 -132
-407 -153 -642 -46 -109 49 -218 133 -289 222 -33 42 -123 225 -287 587 l-29
62 491 -2 491 -3 150 -325z"/>
        <path d="M3571 4206 c-87 -48 -50 -186 49 -186 51 0 100 49 100 99 0 75 -83
124 -149 87z"/>
        <path d="M4071 4206 c-87 -48 -50 -186 49 -186 51 0 100 49 100 99 0 75 -83
124 -149 87z"/>
        <path d="M4571 4206 c-87 -48 -50 -186 49 -186 51 0 100 49 100 99 0 75 -83
124 -149 87z"/>
        <path d="M1556 1305 c-41 -22 -55 -44 -56 -88 -1 -114 166 -132 194 -22 10 40
-18 94 -58 110 -43 18 -44 18 -80 0z"/>
    </g>
</svg>
