<svg version="1.0"
    xmlns="http://www.w3.org/2000/svg" width="512.000000pt" height="512.000000pt" viewBox="0 0 512.000000 512.000000" preserveAspectRatio="xMidYMid meet">

    <g transform="translate(0.000000,512.000000) scale(0.100000,-0.100000)" fill="#000000" stroke="none">
        <path d="M2064 5110 c-319 -45 -600 -190 -817 -420 -176 -187 -288 -403 -344
-663 -26 -117 -25 -418 1 -537 147 -676 757 -1134 1437 -1079 632 51 1131 516
1235 1149 19 117 14 358 -10 470 -100 458 -405 823 -834 994 -148 59 -283 86
-457 91 -82 2 -177 0 -211 -5z"/>
        <path d="M1005 2663 c-167 -111 -319 -311 -475 -626 -134 -270 -217 -541 -255
-830 -19 -145 -19 -193 0 -280 29 -138 89 -239 179 -299 224 -153 591 -261
1061 -313 300 -34 912 -36 1230 -5 61 5 140 13 177 16 36 4 71 10 77 14 8 4
-4 38 -34 103 -143 301 -139 660 11 963 169 339 497 571 876 617 l97 11 -57
111 c-140 269 -275 431 -446 534 l-56 33 -99 -94 c-251 -241 -569 -385 -926
-419 -433 -40 -884 121 -1201 430 -45 44 -84 81 -86 81 -2 0 -35 -21 -73 -47z"/>
        <path d="M3788 1805 c-348 -66 -626 -324 -719 -670 -31 -114 -32 -335 -1 -450
49 -181 160 -355 307 -478 84 -71 240 -149 350 -178 300 -76 622 7 848 220 85
81 144 162 197 272 66 138 84 220 84 389 0 175 -19 254 -93 405 -114 232 -336
412 -586 476 -106 27 -284 33 -387 14z m361 -355 c120 -52 169 -174 126 -316
-19 -65 -61 -114 -157 -181 -43 -30 -85 -68 -93 -84 -10 -18 -15 -57 -15 -109
l0 -80 -99 0 c-114 0 -105 -10 -116 125 -12 139 16 194 141 275 87 57 110 103
83 164 -19 41 -60 52 -142 38 -38 -7 -73 -10 -76 -6 -8 8 -40 157 -35 165 2 3
29 11 61 17 32 7 67 14 78 16 49 12 194 -3 244 -24z m-169 -875 c82 -43 77
-175 -9 -220 -58 -30 -142 -11 -175 40 -21 32 -24 101 -7 133 30 56 128 80
191 47z"/>
    </g>
</svg>
