<svg version="1.0" xmlns="http://www.w3.org/2000/svg"
 width="512.000000pt" height="512.000000pt" viewBox="0 0 512.000000 512.000000"
 preserveAspectRatio="xMidYMid meet">

<g transform="translate(0.000000,512.000000) scale(0.100000,-0.100000)"
fill="#000000" stroke="none">
<path d="M2188 5099 c-50 -26 -78 -81 -78 -154 l0 -56 -47 -20 -46 -20 -41 40
c-64 62 -126 77 -189 45 -42 -21 -441 -416 -478 -473 -47 -73 -37 -136 32
-207 l40 -41 -20 -46 -20 -47 -56 0 c-74 0 -128 -28 -155 -80 -19 -37 -20 -58
-20 -370 0 -305 1 -334 19 -368 26 -52 83 -82 155 -82 l57 0 20 -47 20 -46
-40 -41 c-69 -71 -79 -134 -32 -207 37 -57 436 -452 478 -473 63 -32 125 -17
189 45 l41 40 46 -20 47 -20 0 -56 c0 -73 26 -123 78 -153 39 -22 46 -22 371
-22 313 0 334 1 371 20 52 27 80 81 80 154 l0 55 47 21 47 21 40 -40 c64 -62
126 -77 189 -45 42 21 441 416 478 473 47 73 37 136 -32 207 l-40 41 20 46 20
47 56 0 c74 0 128 28 155 80 19 37 20 58 20 370 0 312 -1 333 -20 370 -27 52
-81 80 -154 80 l-55 0 -21 47 -21 47 40 40 c62 64 77 126 45 189 -21 42 -416
441 -473 478 -73 47 -136 37 -207 -32 l-40 -40 -47 21 -47 21 0 55 c0 73 -28
127 -80 154 -37 19 -58 20 -372 20 -312 -1 -335 -2 -370 -21z m522 -315 c0
-46 25 -99 59 -123 14 -10 58 -28 96 -41 39 -13 105 -40 147 -61 108 -54 177
-51 232 10 l20 22 108 -108 108 -107 -24 -26 c-60 -64 -61 -119 -7 -228 21
-42 48 -108 61 -147 13 -38 31 -82 41 -96 24 -34 77 -59 123 -59 l36 0 0 -150
0 -150 -36 0 c-46 0 -99 -25 -123 -59 -10 -14 -28 -57 -41 -96 -13 -38 -40
-105 -61 -147 -54 -108 -51 -177 10 -232 l22 -20 -108 -108 -107 -108 -26 24
c-64 60 -119 61 -228 7 -42 -21 -108 -48 -147 -61 -38 -13 -82 -31 -96 -41
-34 -24 -59 -77 -59 -123 l0 -36 -150 0 -150 0 0 36 c0 46 -25 99 -59 123 -14
10 -57 28 -96 41 -38 13 -105 40 -147 61 -109 54 -164 53 -228 -7 l-26 -24
-107 108 -108 108 22 20 c61 55 64 124 10 232 -21 42 -48 109 -61 147 -13 39
-31 82 -41 96 -24 34 -77 59 -123 59 l-36 0 0 150 0 150 36 0 c46 0 99 25 123
59 10 14 28 58 41 96 13 39 40 105 61 147 54 108 51 177 -10 232 l-22 20 108
108 107 108 26 -24 c64 -60 119 -61 228 -7 42 21 109 48 147 61 39 13 82 31
96 41 34 24 59 77 59 123 l0 36 150 0 150 0 0 -36z"/>
<path d="M2420 4304 c-180 -38 -357 -177 -439 -344 -94 -193 -94 -387 0 -580
59 -119 170 -230 289 -289 193 -94 387 -94 580 0 169 83 307 260 345 444 31
146 12 285 -56 425 -83 169 -260 307 -444 345 -86 18 -189 18 -275 -1z m294
-323 c75 -37 128 -91 165 -170 22 -47 26 -70 26 -141 0 -76 -4 -93 -33 -152
-38 -77 -92 -130 -171 -167 -47 -22 -70 -26 -141 -26 -71 0 -94 4 -140 26 -82
39 -135 90 -172 167 -29 59 -33 76 -33 152 0 71 4 94 26 140 87 186 293 260
473 171z"/>
<path d="M4285 1895 c-5 -2 -34 -10 -62 -19 -29 -9 -256 -134 -505 -278 -418
-241 -557 -313 -573 -296 -4 3 -2 23 4 45 14 49 14 118 0 185 -36 172 -175
311 -347 347 -86 18 -1067 15 -1173 -4 -154 -27 -292 -87 -414 -180 -94 -72
-881 -863 -894 -898 -6 -16 -11 -42 -11 -59 0 -36 33 -99 61 -116 65 -41 1141
-612 1163 -618 68 -17 92 -1 272 177 102 101 186 176 210 186 36 16 95 18 689
24 705 6 686 4 820 64 29 13 199 107 377 210 177 103 411 237 518 299 219 125
295 189 343 288 84 175 50 376 -88 513 -65 65 -139 106 -223 124 -49 10 -144
14 -167 6z m145 -315 c45 -23 80 -81 80 -132 0 -18 -10 -51 -23 -72 -20 -35
-74 -69 -547 -342 -289 -167 -545 -311 -570 -321 -41 -16 -109 -18 -705 -23
-651 -6 -661 -6 -719 -28 -100 -37 -146 -71 -277 -199 -69 -68 -129 -123 -133
-123 -13 0 -816 432 -816 439 0 4 156 162 348 353 336 335 350 347 432 387
141 69 159 71 733 71 489 0 509 -1 547 -20 45 -23 80 -80 80 -131 0 -45 -36
-103 -80 -128 -36 -20 -51 -21 -319 -21 -263 0 -284 -1 -321 -20 -45 -23 -80
-80 -80 -130 0 -48 33 -103 79 -128 l41 -23 507 4 c548 4 547 4 677 61 28 12
238 131 466 263 228 132 433 249 455 261 51 27 95 27 145 2z"/>
</g>
</svg>
