<?xml version="1.0" standalone="no"?>
<!DOCTYPE svg PUBLIC "-//W3C//DTD SVG 20010904//EN"
 "http://www.w3.org/TR/2001/REC-SVG-20010904/DTD/svg10.dtd">
<svg version="1.0" xmlns="http://www.w3.org/2000/svg"
 width="512.000000pt" height="512.000000pt" viewBox="0 0 512.000000 512.000000"
 preserveAspectRatio="xMidYMid meet">

<g transform="translate(0.000000,512.000000) scale(0.100000,-0.100000)"
fill="#000000" stroke="none">
<path d="M3937 4718 c-626 -209 -1135 -384 -1130 -388 4 -4 261 -92 569 -194
l562 -187 187 -517 c103 -284 190 -520 194 -524 3 -4 150 408 326 915 176 506
348 1001 382 1099 34 98 59 178 55 177 -4 0 -519 -172 -1145 -381z m386 -270
l-343 -343 -342 114 -343 114 680 228 c374 125 682 228 685 228 3 1 -149 -153
-337 -341z m221 -429 c-119 -343 -219 -627 -223 -631 -6 -7 -222 576 -221 597
0 11 652 666 657 661 2 -2 -94 -284 -213 -627z"/>
<path d="M1600 3850 l0 -80 80 0 80 0 0 80 0 80 -80 0 -80 0 0 -80z"/>
<path d="M2080 3850 l0 -80 400 0 400 0 0 80 0 80 -400 0 -400 0 0 -80z"/>
<path d="M3645 3778 c-66 -54 -187 -117 -280 -144 -56 -17 -161 -19 -1580 -24
l-1520 -5 -57 -27 c-71 -33 -138 -101 -175 -176 -24 -49 -27 -69 -28 -147 0
-82 3 -96 33 -157 40 -81 110 -148 190 -180 l57 -23 1016 -5 1016 -5 49 -30
c30 -19 60 -49 79 -79 30 -49 30 -52 33 -208 l4 -158 -1159 -2 -1160 -3 -49
-30 c-30 -19 -60 -49 -79 -79 l-30 -49 -3 -1016 c-2 -925 -1 -1020 14 -1060
21 -55 66 -106 118 -134 l41 -22 2385 0 2385 0 41 22 c52 28 97 79 118 134 15
40 16 135 14 1060 l-3 1016 -30 49 c-19 30 -49 60 -79 79 l-49 30 -1159 3
-1158 2 0 143 c0 163 -14 236 -61 309 -42 64 -110 125 -177 156 l-57 27 -1020
5 c-1123 6 -1044 1 -1107 67 -98 102 -65 263 64 318 33 13 201 15 1480 15 958
0 1472 4 1528 11 110 13 251 60 340 113 77 46 179 125 180 141 0 6 -24 34 -52
62 l-53 51 -60 -50z m1290 -1553 l25 -24 0 -986 0 -987 -29 -29 -29 -29 -2342
0 -2342 0 -29 29 -29 29 0 987 0 986 25 24 24 25 2351 0 2351 0 24 -25z"/>
<path d="M320 1850 l0 -240 240 0 240 0 0 240 0 240 -240 0 -240 0 0 -240z
m320 0 l0 -80 -80 0 -80 0 0 80 0 80 80 0 80 0 0 -80z"/>
<path d="M960 1850 l0 -240 240 0 240 0 0 240 0 240 -240 0 -240 0 0 -240z
m320 0 l0 -80 -80 0 -80 0 0 80 0 80 80 0 80 0 0 -80z"/>
<path d="M1600 1850 l0 -240 240 0 240 0 0 240 0 240 -240 0 -240 0 0 -240z
m320 0 l0 -80 -80 0 -80 0 0 80 0 80 80 0 80 0 0 -80z"/>
<path d="M2240 1850 l0 -240 240 0 240 0 0 240 0 240 -240 0 -240 0 0 -240z
m320 0 l0 -80 -80 0 -80 0 0 80 0 80 80 0 80 0 0 -80z"/>
<path d="M2880 1850 l0 -240 240 0 240 0 0 240 0 240 -240 0 -240 0 0 -240z
m320 0 l0 -80 -80 0 -80 0 0 80 0 80 80 0 80 0 0 -80z"/>
<path d="M3520 1850 l0 -240 640 0 640 0 0 240 0 240 -640 0 -640 0 0 -240z
m1120 0 l0 -80 -480 0 -480 0 0 80 0 80 480 0 480 0 0 -80z"/>
<path d="M320 1210 l0 -240 240 0 240 0 0 240 0 240 -240 0 -240 0 0 -240z
m320 0 l0 -80 -80 0 -80 0 0 80 0 80 80 0 80 0 0 -80z"/>
<path d="M960 1210 l0 -240 240 0 240 0 0 240 0 240 -240 0 -240 0 0 -240z
m320 0 l0 -80 -80 0 -80 0 0 80 0 80 80 0 80 0 0 -80z"/>
<path d="M1600 1210 l0 -240 240 0 240 0 0 240 0 240 -240 0 -240 0 0 -240z
m320 0 l0 -80 -80 0 -80 0 0 80 0 80 80 0 80 0 0 -80z"/>
<path d="M2240 1210 l0 -240 240 0 240 0 0 240 0 240 -240 0 -240 0 0 -240z
m320 0 l0 -80 -80 0 -80 0 0 80 0 80 80 0 80 0 0 -80z"/>
<path d="M2880 1210 l0 -240 240 0 240 0 0 240 0 240 -240 0 -240 0 0 -240z
m320 0 l0 -80 -80 0 -80 0 0 80 0 80 80 0 80 0 0 -80z"/>
<path d="M3520 1210 l0 -240 240 0 240 0 0 240 0 240 -240 0 -240 0 0 -240z
m320 0 l0 -80 -80 0 -80 0 0 80 0 80 80 0 80 0 0 -80z"/>
<path d="M4160 890 l0 -560 320 0 320 0 0 560 0 560 -320 0 -320 0 0 -560z
m480 0 l0 -400 -160 0 -160 0 0 400 0 400 160 0 160 0 0 -400z"/>
<path d="M320 570 l0 -240 240 0 240 0 0 240 0 240 -240 0 -240 0 0 -240z
m320 0 l0 -80 -80 0 -80 0 0 80 0 80 80 0 80 0 0 -80z"/>
<path d="M1092 784 c-176 -87 -174 -332 3 -427 l40 -22 1345 0 1345 0 41 22
c167 89 178 320 20 418 l-49 30 -1347 3 -1346 2 -52 -26z m2723 -159 c33 -33
32 -70 -4 -106 l-29 -29 -1302 0 -1302 0 -29 29 c-36 36 -37 73 -4 106 l24 25
1311 0 1311 0 24 -25z"/>
<path d="M2800 2730 l0 -160 80 0 80 0 0 160 0 160 -80 0 -80 0 0 -160z"/>
<path d="M480 2650 l0 -80 400 0 400 0 0 80 0 80 -400 0 -400 0 0 -80z"/>
<path d="M1440 2650 l0 -80 240 0 240 0 0 80 0 80 -240 0 -240 0 0 -80z"/>
</g>
</svg>
