<svg version="1.0"
    xmlns="http://www.w3.org/2000/svg" width="512.000000pt" height="512.000000pt" viewBox="0 0 512.000000 512.000000" preserveAspectRatio="xMidYMid meet">

    <g transform="translate(0.000000,512.000000) scale(0.100000,-0.100000)" fill="#000000" stroke="none">
        <path d="M2160 4880 l0 -80 -80 0 -80 0 0 -80 0 -80 80 0 80 0 0 -80 0 -80 80
0 80 0 0 80 0 80 80 0 80 0 0 80 0 80 -80 0 -80 0 0 80 0 80 -80 0 -80 0 0
-80z"/>
        <path d="M4080 4880 l0 -80 -80 0 -80 0 0 -80 0 -80 80 0 80 0 0 -80 0 -80 80
0 80 0 0 80 0 80 80 0 80 0 0 80 0 80 -80 0 -80 0 0 80 0 80 -80 0 -80 0 0
-80z"/>
        <path d="M2953 4613 c-9 -3 -98 -119 -138 -181 -1 -1 -53 10 -114 25 -160 39
-156 42 -216 -168 l-16 -57 -57 -6 c-31 -4 -81 -9 -111 -13 -38 -4 -62 -13
-78 -29 -23 -23 -23 -27 -17 -142 l7 -118 -86 -39 c-151 -67 -157 -83 -93
-226 l47 -102 -81 -82 c-108 -111 -108 -119 0 -230 l81 -82 -47 -102 c-64
-143 -58 -159 93 -227 l86 -38 -7 -113 c-9 -162 -6 -165 154 -183 58 -6 106
-13 108 -14 1 -2 14 -43 28 -92 46 -163 55 -169 210 -130 59 15 107 25 108 24
57 -84 130 -177 142 -182 36 -14 68 -3 154 55 l91 62 91 -62 c87 -58 116 -69
152 -55 12 5 85 98 142 182 1 1 49 -9 108 -24 153 -38 165 -32 206 116 12 41
23 82 26 91 3 13 28 19 111 28 164 19 166 21 157 183 l-7 113 86 39 c151 68
157 84 93 227 l-47 102 81 82 c108 111 108 119 0 230 l-81 82 47 102 c64 143
58 159 -93 227 l-86 39 7 113 c9 162 7 164 -157 183 l-106 12 -16 56 c-60 210
-56 207 -216 168 -61 -15 -113 -26 -114 -25 -46 71 -129 177 -141 182 -36 14
-65 3 -152 -55 l-91 -62 -91 62 c-86 58 -120 69 -157 54z m162 -252 c33 -23
70 -41 85 -41 16 0 58 22 106 55 l79 55 25 -31 c14 -17 43 -55 66 -83 48 -61
69 -66 175 -37 40 12 78 21 84 21 6 0 21 -38 34 -85 30 -110 47 -131 108 -139
27 -3 72 -8 102 -12 l54 -6 -7 -100 c-6 -80 -4 -104 8 -122 8 -13 53 -40 101
-61 64 -29 85 -43 82 -54 -3 -9 -21 -52 -41 -96 -22 -50 -33 -88 -29 -100 3
-11 35 -51 69 -90 35 -38 64 -72 64 -75 0 -3 -29 -37 -64 -75 -34 -39 -66 -79
-69 -90 -4 -12 7 -50 29 -100 20 -44 38 -87 41 -96 3 -11 -18 -25 -82 -54
-111 -49 -118 -61 -109 -189 l7 -94 -52 -6 c-28 -3 -74 -9 -101 -12 -64 -8
-81 -28 -111 -139 -13 -47 -28 -85 -34 -85 -6 0 -44 9 -84 21 -106 29 -127 24
-175 -37 -23 -28 -52 -66 -66 -83 l-25 -31 -79 55 c-48 33 -90 55 -106 55 -16
0 -58 -22 -106 -56 l-79 -55 -25 32 c-102 130 -106 134 -136 137 -17 2 -64 -6
-105 -17 -40 -12 -78 -21 -84 -21 -6 0 -21 38 -34 85 -30 111 -47 131 -111
139 -27 3 -73 9 -101 12 l-52 6 7 100 c6 80 4 104 -8 122 -8 13 -53 40 -101
61 -64 29 -85 43 -82 54 3 9 21 52 41 96 22 50 33 88 29 100 -3 11 -35 51 -69
90 -35 38 -64 72 -64 75 0 3 30 39 67 79 47 52 66 81 66 99 0 15 -17 64 -38
110 -21 45 -36 84 -34 86 2 2 43 22 90 44 106 51 112 60 103 187 l-7 93 54 6
c30 4 75 9 102 12 61 8 78 29 108 139 13 47 28 85 34 85 6 0 43 -9 83 -20 124
-35 130 -32 221 93 48 66 33 67 146 -12z"/>
        <path d="M2700 4064 c-143 -52 -230 -184 -217 -329 11 -116 67 -201 169 -256
57 -31 70 -34 148 -34 79 0 90 3 150 36 231 127 222 456 -15 568 -65 31 -172
38 -235 15z m163 -158 c104 -43 128 -175 47 -256 -66 -66 -156 -67 -221 -1
-124 123 13 325 174 257z"/>
        <path d="M3142 3417 c-347 -347 -632 -637 -632 -642 0 -13 92 -105 105 -105 6
0 296 286 645 635 l635 635 -55 55 c-30 30 -57 55 -60 55 -3 0 -290 -285 -638
-633z"/>
        <path d="M3500 3264 c-142 -52 -229 -183 -218 -327 26 -318 443 -407 597 -127
33 60 36 71 36 150 0 78 -3 91 -34 148 -58 106 -144 161 -265 168 -50 3 -84
-1 -116 -12z m163 -158 c103 -43 128 -177 48 -257 -112 -113 -296 -12 -267
146 18 94 128 150 219 111z"/>
        <path d="M1600 4400 l0 -80 -80 0 -80 0 0 -80 0 -80 80 0 80 0 0 -80 0 -80 80
0 80 0 0 80 0 80 80 0 80 0 0 80 0 80 -80 0 -80 0 0 80 0 80 -80 0 -80 0 0
-80z"/>
        <path d="M4640 4400 l0 -80 -80 0 -80 0 0 -80 0 -80 80 0 80 0 0 -80 0 -80 80
0 80 0 0 80 0 80 80 0 80 0 0 80 0 80 -80 0 -80 0 0 80 0 80 -80 0 -80 0 0
-80z"/>
        <path d="M185 2055 l-25 -24 0 -911 0 -911 25 -24 c13 -14 35 -25 47 -25 13 0
138 38 278 85 176 58 260 91 273 106 11 14 17 39 17 75 l0 54 113 0 112 0 480
-160 480 -160 615 0 615 0 622 220 c342 120 640 228 661 239 145 74 187 291
79 409 -19 20 -20 25 -7 45 58 92 65 111 65 187 0 64 -4 83 -29 128 -71 127
-204 171 -366 122 -36 -11 -68 -20 -71 -20 -4 0 -9 21 -13 46 -13 97 -86 187
-176 219 -75 27 -138 19 -337 -40 -102 -30 -189 -55 -193 -55 -4 0 -10 19 -14
42 -15 94 -88 182 -176 213 -85 30 -128 22 -546 -101 l-394 -117 -358 72 -357
71 -251 0 -250 0 -149 -60 c-82 -33 -150 -60 -152 -60 -2 0 -3 33 -3 74 0 56
-4 79 -17 95 -13 15 -97 48 -273 106 -140 47 -265 85 -278 85 -12 0 -34 -11
-47 -25z m450 -935 l0 -663 -157 -53 -158 -52 0 768 0 768 158 -52 157 -53 0
-663z m2593 634 c48 -34 67 -109 34 -141 -10 -10 -88 -38 -174 -62 l-157 -45
-48 46 c-37 34 -60 46 -93 52 -25 4 -63 12 -85 18 -40 10 -37 11 190 78 240
71 296 80 333 54z m-1053 -190 l580 -116 63 -61 62 -61 0 -63 0 -63 -535 0
-536 0 -24 -25 c-30 -29 -33 -74 -7 -103 9 -11 184 -113 389 -226 l372 -206
336 0 336 0 561 165 c309 91 579 165 600 165 28 0 46 -8 70 -29 29 -26 33 -35
33 -80 0 -90 16 -82 -675 -325 l-615 -216 -585 0 -585 0 -480 160 -480 160
-127 0 -128 0 0 453 0 453 163 66 162 66 235 1 235 1 580 -116z m1784 20 c35
-29 49 -81 32 -122 -11 -27 -19 -29 -469 -131 -251 -58 -463 -106 -470 -109
-10 -3 -12 13 -10 73 l3 77 400 119 c220 65 419 118 442 118 30 1 49 -6 72
-25z m473 -234 c56 -43 61 -125 10 -173 -15 -14 -49 -31 -77 -37 -27 -7 -304
-86 -615 -176 l-565 -165 -302 1 -302 0 -197 110 c-188 104 -196 110 -170 120
17 6 161 10 389 10 l362 0 550 125 c303 69 609 143 680 165 149 44 201 49 237
20z"/>
    </g>
</svg>
