<svg version="1.0"
    xmlns="http://www.w3.org/2000/svg" width="512.000000pt" height="512.000000pt" viewBox="0 0 512.000000 512.000000" preserveAspectRatio="xMidYMid meet">

    <g transform="translate(0.000000,512.000000) scale(0.100000,-0.100000)" fill="#000000" stroke="none">
        <path d="M1760 4560 l0 -320 800 0 800 0 0 320 0 320 -800 0 -800 0 0 -320z
m1274 228 c86 -26 166 -136 166 -228 0 -92 -80 -202 -166 -228 -58 -17 -890
-17 -948 0 -55 16 -138 99 -154 154 -28 94 -8 169 63 239 27 28 66 56 85 62
52 16 899 17 954 1z"/>
        <path d="M2105 4615 c-16 -15 -25 -36 -25 -55 0 -19 9 -40 25 -55 l24 -25 431
0 431 0 24 25 c16 15 25 36 25 55 0 19 -9 40 -25 55 l-24 25 -431 0 -431 0
-24 -25z"/>
        <path d="M665 4695 c-21 -20 -25 -34 -25 -80 l0 -55 480 0 480 0 0 80 0 80
-455 0 -456 0 -24 -25z"/>
        <path d="M3520 4640 l0 -80 480 0 480 0 0 55 c0 46 -4 60 -25 80 l-24 25 -456
0 -455 0 0 -80z"/>
        <path d="M265 4375 c-25 -24 -25 -24 -25 -240 l0 -215 2320 0 2320 0 0 215 c0
216 0 216 -25 240 l-24 25 -655 0 -654 0 -4 -109 c-3 -118 -12 -141 -72 -185
-27 -21 -34 -21 -885 -21 l-858 0 -37 29 c-53 40 -66 78 -66 191 l0 95 -655 0
-656 0 -24 -25z"/>
        <path d="M242 3571 c3 -207 6 -216 72 -265 39 -29 133 -29 172 0 66 49 69 58
72 265 l3 189 -161 0 -161 0 3 -189z"/>
        <path d="M722 3572 l3 -189 29 -37 c68 -90 190 -86 260 8 19 25 21 44 24 217
l3 189 -161 0 -161 0 3 -188z"/>
        <path d="M1202 3571 c3 -207 6 -216 72 -265 39 -29 133 -29 172 0 66 49 69 58
72 265 l3 189 -161 0 -161 0 3 -189z"/>
        <path d="M1682 3571 c3 -207 6 -216 72 -265 39 -29 133 -29 172 0 66 49 69 58
72 265 l3 189 -161 0 -161 0 3 -189z"/>
        <path d="M2162 3571 c3 -207 6 -216 72 -265 39 -29 133 -29 172 0 66 49 69 58
72 265 l3 189 -161 0 -161 0 3 -189z"/>
        <path d="M2642 3571 c3 -207 6 -216 72 -265 39 -29 133 -29 172 0 66 49 69 58
72 265 l3 189 -161 0 -161 0 3 -189z"/>
        <path d="M3122 3571 c3 -207 6 -216 72 -265 39 -29 133 -29 172 0 66 49 69 58
72 265 l3 189 -161 0 -161 0 3 -189z"/>
        <path d="M3602 3571 c3 -207 6 -216 72 -265 39 -29 133 -29 172 0 66 49 69 58
72 265 l3 189 -161 0 -161 0 3 -189z"/>
        <path d="M4082 3571 c3 -207 6 -216 72 -265 39 -29 133 -29 172 0 66 49 69 58
72 265 l3 189 -161 0 -161 0 3 -189z"/>
        <path d="M4562 3571 c3 -207 6 -216 72 -265 39 -29 133 -29 172 0 66 49 69 58
72 265 l3 189 -161 0 -161 0 3 -189z"/>
        <path d="M610 3203 c-14 -14 -49 -36 -77 -50 l-53 -24 0 -85 0 -84 1175 0
1176 0 24 -25 25 -24 0 -1096 0 -1095 80 0 80 0 0 1095 0 1096 25 24 24 25
671 0 671 0 24 -25 25 -24 0 -1096 0 -1095 80 0 80 0 0 1204 0 1205 -52 24
c-29 14 -66 37 -81 52 l-29 27 -31 -30 c-107 -104 -307 -104 -414 0 l-33 32
-32 -32 c-54 -52 -122 -77 -208 -77 -86 0 -154 25 -207 77 l-33 32 -32 -32
c-108 -104 -308 -104 -415 0 l-33 32 -32 -32 c-54 -52 -122 -77 -208 -77 -86
0 -154 25 -207 77 l-33 32 -32 -32 c-54 -52 -122 -77 -208 -77 -86 0 -154 25
-207 77 l-33 32 -32 -32 c-54 -52 -122 -77 -208 -77 -86 0 -154 25 -207 77
l-33 32 -32 -32 c-108 -104 -308 -104 -415 0 l-33 32 -32 -32 c-107 -103 -316
-103 -414 -1 -15 16 -30 29 -33 28 -3 0 -17 -12 -31 -26z"/>
        <path d="M480 2720 l0 -80 1120 0 1120 0 0 80 0 80 -1120 0 -1120 0 0 -80z"/>
        <path d="M3200 2720 l0 -80 560 0 560 0 0 80 0 80 -560 0 -560 0 0 -80z"/>
        <path d="M480 1920 l0 -560 1120 0 1120 0 0 560 0 560 -1120 0 -1120 0 0 -560z
m882 243 c26 -26 48 -52 48 -58 0 -5 -124 -134 -275 -285 l-275 -275 -57 58
-58 57 275 275 c151 151 279 275 285 275 5 0 31 -21 57 -47z m720 0 c26 -26
48 -52 48 -58 0 -5 -124 -134 -275 -285 l-275 -275 -57 58 -58 57 275 275
c151 151 279 275 285 275 5 0 31 -21 57 -47z"/>
        <path d="M3200 1600 l0 -880 560 0 560 0 0 880 0 880 -560 0 -560 0 0 -880z
m303 306 c103 -43 128 -177 48 -257 -64 -65 -153 -65 -220 -1 -128 121 9 326
172 258z"/>
        <path d="M480 960 l0 -240 1120 0 1120 0 0 240 0 240 -1120 0 -1120 0 0 -240z"/>
        <path d="M265 535 c-24 -23 -25 -29 -25 -160 l0 -135 2320 0 2320 0 0 135 c0
131 -1 137 -25 160 l-24 25 -2271 0 -2271 0 -24 -25z"/>
    </g>
</svg>
