<svg version="1.0"
    xmlns="http://www.w3.org/2000/svg" width="512.000000pt" height="512.000000pt" viewBox="0 0 512.000000 512.000000" preserveAspectRatio="xMidYMid meet">

    <g transform="translate(0.000000,512.000000) scale(0.100000,-0.100000)" fill="#000000" stroke="none">
        <path d="M1106 4949 c-62 -15 -153 -68 -197 -116 -22 -24 -55 -74 -72 -111
l-32 -67 -3 -1847 -2 -1848 80 0 80 0 0 1816 c0 1397 3 1826 12 1858 16 55 99
138 154 154 32 9 349 12 1336 12 l1294 0 -35 -72 -36 -72 -5 -2080 c-5 -2010
-6 -2082 -24 -2119 -24 -49 -95 -110 -144 -125 -91 -28 -167 -8 -237 63 -64
63 -75 100 -75 244 0 105 -1 113 -25 136 l-24 25 -1471 0 -1471 0 -26 -26
c-25 -25 -25 -26 -22 -168 4 -141 5 -143 41 -218 45 -91 103 -147 196 -191
l67 -32 1535 0 1535 0 67 32 c93 44 151 100 196 191 l37 76 3 1928 2 1928 296
0 295 0 26 26 c25 25 25 26 21 167 -3 134 -5 146 -35 209 -44 93 -100 151
-191 196 l-76 37 -1515 2 c-894 1 -1532 -3 -1555 -8z m3048 -161 c55 -16 138
-99 154 -154 7 -23 12 -67 12 -98 l0 -56 -240 0 -240 0 0 56 c0 87 18 133 75
189 70 71 145 90 239 63z m-1112 -4239 c5 -77 11 -101 40 -160 l34 -69 -1294
0 c-987 0 -1304 3 -1336 12 -55 16 -138 99 -154 154 -7 23 -12 67 -12 98 l0
56 1359 0 1358 0 5 -91z"/>
        <path d="M2246 4545 c-21 -7 -50 -25 -65 -39 -18 -18 -38 -26 -62 -26 -99 -1
-199 -102 -199 -203 0 -22 -8 -41 -21 -53 -32 -28 -59 -93 -59 -144 0 -51 27
-116 59 -144 13 -12 21 -31 21 -53 0 -100 100 -202 199 -203 22 0 44 -10 67
-29 75 -66 193 -66 268 0 23 19 45 29 67 29 98 1 199 103 199 201 0 20 10 43
29 65 30 34 51 89 51 134 0 45 -21 100 -51 134 -19 23 -29 45 -29 67 -1 98
-103 199 -201 199 -20 0 -43 10 -65 29 -55 49 -134 63 -208 36z m105 -161 c7
-9 18 -26 24 -37 6 -12 22 -28 37 -36 23 -13 32 -13 62 -3 67 24 98 -7 74 -74
-15 -43 0 -78 46 -104 40 -22 54 -45 40 -67 -6 -10 -24 -25 -40 -33 -46 -26
-61 -61 -46 -104 24 -67 -7 -98 -74 -74 -43 15 -78 0 -104 -46 -33 -60 -67
-60 -100 0 -26 46 -61 61 -104 46 -67 -24 -98 7 -74 74 15 43 0 78 -46 104
-40 22 -54 45 -40 67 6 10 24 25 40 33 46 26 61 61 46 104 -24 67 7 98 74 74
30 -10 39 -10 62 3 15 8 31 24 37 36 18 35 36 53 55 53 10 0 24 -7 31 -16z"/>
        <path d="M4245 3991 c-92 -24 -173 -90 -215 -176 l-25 -50 -2 -1335 -2 -1335
132 -260 c142 -281 151 -291 215 -269 23 8 47 48 159 269 l132 260 1 1213 0
1212 55 0 c46 0 60 -4 80 -25 l25 -24 0 -456 0 -455 80 0 80 0 0 456 c0 324
-3 468 -12 496 -6 22 -31 62 -55 88 -51 56 -108 80 -194 80 l-57 0 -7 48 c-4
26 -21 73 -38 105 -52 99 -141 156 -256 162 -36 2 -79 1 -96 -4z m139 -165
c40 -17 83 -71 92 -114 l7 -32 -162 0 c-175 0 -172 -1 -150 57 32 84 128 125
213 89z m96 -626 l0 -320 -160 0 -160 0 0 320 0 320 160 0 160 0 0 -320z m0
-560 l0 -80 -160 0 -160 0 0 80 0 80 160 0 160 0 0 -80z m0 -840 l0 -600 -160
0 -160 0 0 600 0 600 160 0 160 0 0 -600z m-102 -865 c-29 -58 -55 -105 -58
-105 -3 0 -29 47 -58 105 l-52 105 110 0 110 0 -52 -105z"/>
        <path d="M1680 3360 l0 -80 160 0 160 0 0 80 0 80 -160 0 -160 0 0 -80z"/>
        <path d="M2160 3360 l0 -80 400 0 400 0 0 80 0 80 -400 0 -400 0 0 -80z"/>
        <path d="M1920 3040 l0 -80 400 0 400 0 0 80 0 80 -400 0 -400 0 0 -80z"/>
        <path d="M1200 2640 l0 -80 80 0 80 0 0 80 0 80 -80 0 -80 0 0 -80z"/>
        <path d="M1520 2640 l0 -80 960 0 960 0 0 80 0 80 -960 0 -960 0 0 -80z"/>
        <path d="M1520 2320 l0 -80 640 0 640 0 0 80 0 80 -640 0 -640 0 0 -80z"/>
        <path d="M2960 2320 l0 -80 240 0 240 0 0 80 0 80 -240 0 -240 0 0 -80z"/>
        <path d="M1200 2000 l0 -80 80 0 80 0 0 80 0 80 -80 0 -80 0 0 -80z"/>
        <path d="M1520 2000 l0 -80 960 0 960 0 0 80 0 80 -960 0 -960 0 0 -80z"/>
        <path d="M1520 1680 l0 -80 240 0 240 0 0 80 0 80 -240 0 -240 0 0 -80z"/>
        <path d="M2160 1680 l0 -80 640 0 640 0 0 80 0 80 -640 0 -640 0 0 -80z"/>
        <path d="M1200 1360 l0 -80 80 0 80 0 0 80 0 80 -80 0 -80 0 0 -80z"/>
        <path d="M1520 1360 l0 -80 640 0 640 0 0 80 0 80 -640 0 -640 0 0 -80z"/>
        <path d="M2960 1360 l0 -80 240 0 240 0 0 80 0 80 -240 0 -240 0 0 -80z"/>
        <path d="M1520 1040 l0 -80 960 0 960 0 0 80 0 80 -960 0 -960 0 0 -80z"/>
    </g>
</svg>
